<svg xmlns="http://www.w3.org/2000/svg" xmlns:xlink="http://www.w3.org/1999/xlink" width="353pt" height="256" viewBox="0 0 353 192"><g id="graph0" class="graph" transform="scale(1 1) rotate(0) translate(4 188)"><title>WFST</title><polygon fill="#fff" stroke="transparent" points="-4 4 -4 -188 349 -188 349 4 -4 4"/><text x="172.5" y="-7.8" fill="#000" font-family="Times,serif" font-size="14" text-anchor="middle">a_fsa</text><g id="node1" class="node"><title>0</title><ellipse cx="18" cy="-97" fill="none" stroke="#000" stroke-width="2" rx="18" ry="18"/><text x="18" y="-93.3" fill="#000" font-family="Times,serif" font-size="14" text-anchor="middle">0</text></g><g id="edge1" class="edge"><title>0-&gt;0</title><path fill="none" stroke="#000" d="M9.9836,-113.2903C8.0505,-123.3892 10.7227,-133 18,-133 22.662,-133 25.4341,-129.0557 26.3162,-123.5656"/><polygon fill="#000" stroke="#000" points="29.807 -123.184 26.016 -113.29 22.81 -123.388 29.807 -123.184"/><text x="18" y="-136.8" fill="#000" font-family="Times,serif" font-size="14" text-anchor="middle">0:0/0</text></g><g id="node2" class="node"><title>1</title><ellipse cx="112" cy="-59" fill="none" stroke="#000" stroke-width="2" rx="18" ry="18"/><text x="112" y="-55.3" fill="#000" font-family="Times,serif" font-size="14" text-anchor="middle">1</text></g><g id="edge2" class="edge"><title>0-&gt;1</title><path fill="none" stroke="#000" d="M27.2584,-81.5597C32.9912,-73.5492 41.1395,-64.5155 51,-60 61.1115,-55.3696 73.1903,-54.3693 83.9216,-54.8003"/><polygon fill="#000" stroke="#000" points="83.83 -58.304 94.081 -55.627 84.398 -51.327 83.83 -58.304"/><text x="65" y="-63.8" fill="#000" font-family="Times,serif" font-size="14" text-anchor="middle">1:1/0</text></g><g id="node3" class="node"><title>2</title><ellipse cx="215.5" cy="-116" fill="none" stroke="#000" stroke-width="2" rx="18" ry="18"/><text x="215.5" y="-112.3" fill="#000" font-family="Times,serif" font-size="14" text-anchor="middle">2</text></g><g id="edge3" class="edge"><title>0-&gt;2</title><path fill="none" stroke="#000" d="M22.3454,-114.7725C26.9135,-129.4201 35.6336,-149.4416 51,-160 66.8574,-170.8957 74.7923,-163.887 94,-165 133.1086,-167.2661 147.772,-179.0542 182,-160 190.0794,-155.5023 196.8212,-148.1611 202.0882,-140.7524"/><polygon fill="#000" stroke="#000" points="205.128 -142.496 207.586 -132.191 199.237 -138.714 205.128 -142.496"/><text x="112" y="-172.8" fill="#000" font-family="Times,serif" font-size="14" text-anchor="middle">2:2/0</text></g><g id="node4" class="node"><title>3</title><ellipse cx="323" cy="-45" fill="none" stroke="#000" stroke-width="2" rx="18" ry="18"/><ellipse cx="323" cy="-45" fill="none" stroke="#000" stroke-width="2" rx="22" ry="22"/><text x="323" y="-41.3" fill="#000" font-family="Times,serif" font-size="14" text-anchor="middle">3</text></g><g id="edge4" class="edge"><title>0-&gt;3</title><path fill="none" stroke="#000" d="M26.2487,-80.8574C32.0373,-70.8599 40.591,-58.3751 51,-50 67.1417,-37.0123 73.6877,-36.0799 94,-32 163.3957,-18.0613 246.825,-29.7462 291.344,-38.1918"/><polygon fill="#000" stroke="#000" points="290.786 -41.649 301.274 -40.146 292.137 -34.781 290.786 -41.649"/><text x="163.5" y="-28.8" fill="#000" font-family="Times,serif" font-size="14" text-anchor="middle">-1:-1/0</text></g><g id="edge5" class="edge"><title>1-&gt;0</title><path fill="none" stroke="#000" d="M95.7063,-67.3205C90.4297,-69.9014 84.5154,-72.676 79,-75 67.9932,-79.638 55.6327,-84.2102 44.9309,-87.9747"/><polygon fill="#000" stroke="#000" points="43.584 -84.737 35.277 -91.312 45.872 -91.353 43.584 -84.737"/><text x="65" y="-88.8" fill="#000" font-family="Times,serif" font-size="14" text-anchor="middle">0:0/0</text></g><g id="edge6" class="edge"><title>1-&gt;1</title><path fill="none" stroke="#000" d="M103.9836,-75.2903C102.0505,-85.3892 104.7227,-95 112,-95 116.662,-95 119.4341,-91.0557 120.3162,-85.5656"/><polygon fill="#000" stroke="#000" points="123.807 -85.184 120.016 -75.29 116.81 -85.388 123.807 -85.184"/><text x="112" y="-98.8" fill="#000" font-family="Times,serif" font-size="14" text-anchor="middle">1:0/0</text></g><g id="edge7" class="edge"><title>1-&gt;2</title><path fill="none" stroke="#000" d="M122.8497,-73.6411C128.7197,-80.6657 136.5019,-88.6882 145,-94 157.996,-102.1233 174.2258,-107.457 187.8362,-110.8352"/><polygon fill="#000" stroke="#000" points="187.111 -114.26 197.637 -113.051 188.655 -107.432 187.111 -114.26"/><text x="163.5" y="-112.8" fill="#000" font-family="Times,serif" font-size="14" text-anchor="middle">2:2/0</text></g><g id="edge8" class="edge"><title>1-&gt;3</title><path fill="none" stroke="#000" d="M129.9897,-57.8064C165.6955,-55.4373 245.9406,-50.1129 290.9075,-47.1294"/><polygon fill="#000" stroke="#000" points="291.255 -50.614 301.001 -46.46 290.791 -43.63 291.255 -50.614"/><text x="215.5" y="-56.8" fill="#000" font-family="Times,serif" font-size="14" text-anchor="middle">-1:-1/0</text></g><g id="edge9" class="edge"><title>2-&gt;0</title><path fill="none" stroke="#000" d="M198.7644,-123.2669C193.5012,-125.2039 187.5998,-127.0273 182,-128 133.3118,-136.4572 76.7109,-119.8885 44.3477,-107.8843"/><polygon fill="#000" stroke="#000" points="45.322 -104.509 34.733 -104.185 42.809 -111.042 45.322 -104.509"/><text x="112" y="-131.8" fill="#000" font-family="Times,serif" font-size="14" text-anchor="middle">0:0/0</text></g><g id="edge10" class="edge"><title>2-&gt;1</title><path fill="none" stroke="#000" d="M206.2487,-100.1516C200.3733,-91.4521 191.9983,-81.2021 182,-75 169.5451,-67.2741 153.7659,-63.2699 140.3429,-61.1984"/><polygon fill="#000" stroke="#000" points="140.551 -57.697 130.191 -59.917 139.675 -64.642 140.551 -57.697"/><text x="163.5" y="-78.8" fill="#000" font-family="Times,serif" font-size="14" text-anchor="middle">1:1/0</text></g><g id="edge11" class="edge"><title>2-&gt;2</title><path fill="none" stroke="#000" d="M206.5212,-131.916C204.179,-142.1504 207.1719,-152 215.5,-152 220.9653,-152 224.133,-147.7581 225.003,-141.9494"/><polygon fill="#000" stroke="#000" points="228.496 -141.72 224.479 -131.916 221.505 -142.085 228.496 -141.72"/><text x="215.5" y="-155.8" fill="#000" font-family="Times,serif" font-size="14" text-anchor="middle">2:0/0</text></g><g id="edge12" class="edge"><title>2-&gt;3</title><path fill="none" stroke="#000" d="M230.9021,-105.8274C247.7933,-94.6714 275.227,-76.5524 295.7672,-62.9863"/><polygon fill="#000" stroke="#000" points="297.961 -65.732 304.377 -57.3 294.103 -59.891 297.961 -65.732"/><text x="267.5" y="-96.8" fill="#000" font-family="Times,serif" font-size="14" text-anchor="middle">-1:-1/0</text></g></g></svg>