<svg xmlns="http://www.w3.org/2000/svg" xmlns:xlink="http://www.w3.org/1999/xlink" width="532pt" height="139pt" viewBox="0 0 532 139"><g id="graph0" class="graph" transform="scale(1 1) rotate(0) translate(4 135)"><title>WFST</title><polygon fill="#fff" stroke="transparent" points="-4 4 -4 -135 528 -135 528 4 -4 4"/><text x="262" y="-7.8" fill="#000" font-family="Times,serif" font-size="14" text-anchor="middle">c_fsa</text><g id="node1" class="node"><title>0</title><ellipse cx="18" cy="-45" fill="none" stroke="#000" stroke-width="2" rx="18" ry="18"/><text x="18" y="-41.3" fill="#000" font-family="Times,serif" font-size="14" text-anchor="middle">0</text></g><g id="edge1" class="edge"><title>0-&gt;0</title><path fill="none" stroke="#000" d="M9.9836,-61.2903C8.0505,-71.3892 10.7227,-81 18,-81 22.662,-81 25.4341,-77.0557 26.3162,-71.5656"/><polygon fill="#000" stroke="#000" points="29.807 -71.184 26.016 -61.29 22.81 -71.388 29.807 -71.184"/><text x="18" y="-84.8" fill="#000" font-family="Times,serif" font-size="14" text-anchor="middle">0:0/0</text></g><g id="node2" class="node"><title>1</title><ellipse cx="112" cy="-45" fill="none" stroke="#000" stroke-width="2" rx="18" ry="18"/><text x="112" y="-41.3" fill="#000" font-family="Times,serif" font-size="14" text-anchor="middle">1</text></g><g id="edge2" class="edge"><title>0-&gt;1</title><path fill="none" stroke="#000" d="M36.1241,-45C49.6484,-45 68.3808,-45 83.8486,-45"/><polygon fill="#000" stroke="#000" points="83.931 -48.5 93.931 -45 83.931 -41.5 83.931 -48.5"/><text x="65" y="-48.8" fill="#000" font-family="Times,serif" font-size="14" text-anchor="middle">1:1/0</text></g><g id="edge4" class="edge"><title>1-&gt;1</title><path fill="none" stroke="#000" d="M103.9836,-61.2903C102.0505,-71.3892 104.7227,-81 112,-81 116.662,-81 119.4341,-77.0557 120.3162,-71.5656"/><polygon fill="#000" stroke="#000" points="123.807 -71.184 120.016 -61.29 116.81 -71.388 123.807 -71.184"/><text x="112" y="-84.8" fill="#000" font-family="Times,serif" font-size="14" text-anchor="middle">1:0/0</text></g><g id="node3" class="node"><title>2</title><ellipse cx="206" cy="-80" fill="none" stroke="#000" stroke-width="2" rx="18" ry="18"/><text x="206" y="-76.3" fill="#000" font-family="Times,serif" font-size="14" text-anchor="middle">2</text></g><g id="edge3" class="edge"><title>1-&gt;2</title><path fill="none" stroke="#000" d="M129.241,-51.4195C143.2866,-56.6493 163.3555,-64.1217 179.4501,-70.1144"/><polygon fill="#000" stroke="#000" points="178.275 -73.412 188.868 -73.621 180.718 -66.852 178.275 -73.412"/><text x="159" y="-70.8" fill="#000" font-family="Times,serif" font-size="14" text-anchor="middle">0:0/0</text></g><g id="node4" class="node"><title>3</title><ellipse cx="300" cy="-45" fill="none" stroke="#000" stroke-width="2" rx="18" ry="18"/><text x="300" y="-41.3" fill="#000" font-family="Times,serif" font-size="14" text-anchor="middle">3</text></g><g id="edge5" class="edge"><title>1-&gt;3</title><path fill="none" stroke="#000" d="M130.0876,-42.8628C145.4655,-41.1589 168.1455,-38.9124 188,-38 203.9831,-37.2655 208.0169,-37.2655 224,-38 239.8215,-38.7271 257.4373,-40.3013 271.7225,-41.773"/><polygon fill="#000" stroke="#000" points="271.597 -45.279 281.912 -42.863 272.341 -38.319 271.597 -45.279"/><text x="206" y="-41.8" fill="#000" font-family="Times,serif" font-size="14" text-anchor="middle">2:2/0</text></g><g id="edge6" class="edge"><title>2-&gt;2</title><path fill="none" stroke="#000" d="M197.9836,-96.2903C196.0505,-106.3892 198.7227,-116 206,-116 210.662,-116 213.4341,-112.0557 214.3162,-106.5656"/><polygon fill="#000" stroke="#000" points="217.807 -106.184 214.016 -96.29 210.81 -106.388 217.807 -106.184"/><text x="206" y="-119.8" fill="#000" font-family="Times,serif" font-size="14" text-anchor="middle">0:0/0</text></g><g id="edge7" class="edge"><title>2-&gt;3</title><path fill="none" stroke="#000" d="M223.241,-73.5805C237.2866,-68.3507 257.3555,-60.8783 273.4501,-54.8856"/><polygon fill="#000" stroke="#000" points="274.718 -58.148 282.868 -51.379 272.276 -51.588 274.718 -58.148"/><text x="253" y="-70.8" fill="#000" font-family="Times,serif" font-size="14" text-anchor="middle">2:2/0</text></g><g id="edge9" class="edge"><title>3-&gt;3</title><path fill="none" stroke="#000" d="M291.9836,-61.2903C290.0505,-71.3892 292.7227,-81 300,-81 304.662,-81 307.4341,-77.0557 308.3162,-71.5656"/><polygon fill="#000" stroke="#000" points="311.807 -71.184 308.016 -61.29 304.81 -71.388 311.807 -71.184"/><text x="300" y="-84.8" fill="#000" font-family="Times,serif" font-size="14" text-anchor="middle">2:0/0</text></g><g id="node5" class="node"><title>4</title><ellipse cx="394.5" cy="-80" fill="none" stroke="#000" stroke-width="2" rx="18" ry="18"/><text x="394.5" y="-76.3" fill="#000" font-family="Times,serif" font-size="14" text-anchor="middle">4</text></g><g id="edge8" class="edge"><title>3-&gt;4</title><path fill="none" stroke="#000" d="M316.8947,-51.2573C331.0512,-56.5004 351.5121,-64.0785 367.8706,-70.1373"/><polygon fill="#000" stroke="#000" points="366.84 -73.488 377.433 -73.679 369.271 -66.924 366.84 -73.488"/><text x="347" y="-69.8" fill="#000" font-family="Times,serif" font-size="14" text-anchor="middle">0:0/0</text></g><g id="node6" class="node"><title>5</title><ellipse cx="502" cy="-45" fill="none" stroke="#000" stroke-width="2" rx="18" ry="18"/><ellipse cx="502" cy="-45" fill="none" stroke="#000" stroke-width="2" rx="22" ry="22"/><text x="502" y="-41.3" fill="#000" font-family="Times,serif" font-size="14" text-anchor="middle">5</text></g><g id="edge10" class="edge"><title>3-&gt;5</title><path fill="none" stroke="#000" d="M318.0876,-42.8628C333.4655,-41.1589 356.1455,-38.9124 376,-38 407.7889,-36.5391 444.0672,-38.9895 469.5068,-41.383"/><polygon fill="#000" stroke="#000" points="469.405 -44.89 479.701 -42.394 470.095 -37.924 469.405 -44.89"/><text x="394.5" y="-41.8" fill="#000" font-family="Times,serif" font-size="14" text-anchor="middle">-1:-1/0</text></g><g id="edge11" class="edge"><title>4-&gt;4</title><path fill="none" stroke="#000" d="M386.4836,-96.2903C384.5505,-106.3892 387.2227,-116 394.5,-116 399.162,-116 401.9341,-112.0557 402.8162,-106.5656"/><polygon fill="#000" stroke="#000" points="406.307 -106.184 402.516 -96.29 399.31 -106.388 406.307 -106.184"/><text x="394.5" y="-119.8" fill="#000" font-family="Times,serif" font-size="14" text-anchor="middle">0:0/0</text></g><g id="edge12" class="edge"><title>4-&gt;5</title><path fill="none" stroke="#000" d="M411.7717,-74.3766C427.7427,-69.1768 451.8494,-61.3281 471.1283,-55.0512"/><polygon fill="#000" stroke="#000" points="472.276 -58.358 480.701 -51.934 470.109 -51.702 472.276 -58.358"/><text x="446.5" y="-71.8" fill="#000" font-family="Times,serif" font-size="14" text-anchor="middle">-1:-1/0</text></g></g></svg>